HIERARCHY
ROOT Hips
{
    OFFSET 0.000000 0.000000 0.000000
    CHANNELS 6 Xposition Yposition Zposition Zrotation Xrotation Yrotation
        JOINT Chest
        {
            OFFSET -0.000000 31.804140 -0.000000
            CHANNELS 3 Zrotation Xrotation Yrotation
            JOINT Neck
            {
                OFFSET -0.000000 23.903318 0.000000
                CHANNELS 3 Zrotation Xrotation Yrotation
                JOINT Head
                {
                    OFFSET -0.000000 10.511110 0.000000
                    CHANNELS 3 Zrotation Xrotation Yrotation
                    End Site
                    {
                        OFFSET -0.000000 16.244448 0.000000
                    }
                }
            }
            JOINT LeftCollar
            {
                OFFSET -0.000000 23.903318 0.000000
                CHANNELS 3 Zrotation Xrotation Yrotation
                JOINT LeftShoulder
                {
                    OFFSET 20.500000 -0.000000 0.000000
                    CHANNELS 3 Zrotation Xrotation Yrotation
                    JOINT LeftElbow
                    {
                        OFFSET 20.922438 0.000000 0.000000
                        CHANNELS 3 Zrotation Xrotation Yrotation
                        JOINT LeftWrist
                        {
                            OFFSET 26.373112 0.000000 0.000000
                            CHANNELS 3 Zrotation Xrotation Yrotation
                            End Site
                            {
                                OFFSET 0.000000 -14.333333 0.000000
                            }
                        }
                    }
                }
            }
            JOINT RightCollar
            {
                OFFSET -0.000000 23.903318 0.000000
                CHANNELS 3 Zrotation Xrotation Yrotation
                JOINT RightShoulder
                {
                    OFFSET -20.500000 0.000000 0.000000
                    CHANNELS 3 Zrotation Xrotation Yrotation
                    JOINT RightElbow
                    {
                        OFFSET -20.922438 0.000000 0.000000
                        CHANNELS 3 Zrotation Xrotation Yrotation
                        JOINT RightWrist
                        {
                            OFFSET -26.373112 0.000000 0.000000
                            CHANNELS 3 Zrotation Xrotation Yrotation
                            End Site
                            {
                                OFFSET -0.000000 -14.333333 0.000000
                            }
                        }
                    }
                }
            }
        }
    JOINT LeftHip
    {
        OFFSET 11.466667 0.000000 0.000000
        CHANNELS 3 Zrotation Xrotation Yrotation
        JOINT LeftKnee
        {
            OFFSET -0.000000 -37.458855 0.000000
            CHANNELS 3 Zrotation Xrotation Yrotation
            JOINT LeftAnkle
            {
                OFFSET -0.000000 -39.235966 0.000000
                CHANNELS 3 Zrotation Xrotation Yrotation
                End Site
                {
                    OFFSET -0.000000 -4.777778 16.244448
                }
            }
        }
    }
    JOINT RightHip
    {
        OFFSET -11.466667 0.000000 0.000000
        CHANNELS 3 Zrotation Xrotation Yrotation
        JOINT RightKnee
        {
            OFFSET -0.000000 -37.458855 0.000000
            CHANNELS 3 Zrotation Xrotation Yrotation
            JOINT RightAnkle
            {
                OFFSET -0.000000 -39.235966 0.000000
                CHANNELS 3 Zrotation Xrotation Yrotation
                End Site
                {
                    OFFSET -0.000000 -4.777778 16.244448
                }
            }
        }
    }
}
MOTION
Frames:    9
Frame Time:    0.010000
118.773743    85.157234    -74.566139    -3.189538    -3.821871    -38.305897    4.621195    22.889893    3.471076    -11.172933    4.339087    -1.586562    5.020885    -12.932215    -1.447108    -10.623113    0.151349    -1.879400    -56.947788    25.521145    -21.222078    -6.632487    6.629866    -89.083740    162.167465    -4.958856    24.463871    16.964981    0.937858    6.345957    32.788544    49.475960    28.241964    -1.973176    -1.544665    77.064278    -130.207214    -19.634621    12.127835    22.742922    -15.183397    2.382665    -46.029800    52.859936    35.718689    -11.412301    4.082733    5.983666    2.683879    -3.764117    -11.344975    -1.498538    36.035748    -14.632759    2.064351    -15.058609    -3.244204    
118.768333    85.448387    -74.237366    -2.941449    -3.944908    -38.194805    4.423290    22.682840    3.626056    -11.130831    4.345335    -1.659057    5.059991    -12.595992    -1.525162    -10.655182    0.172166    -1.780981    -56.881775    25.458511    -21.138321    -6.777417    6.780319    -88.902153    162.254929    -5.028593    24.504625    16.983715    0.968083    6.307321    32.326279    49.726974    28.723345    -1.799456    -1.320932    76.849838    -130.964493    -19.566118    11.852185    22.704636    -15.710619    2.555423    -46.210945    52.765812    36.106213    -11.858186    3.991083    6.478290    2.212477    -3.325001    -11.422729    -1.312683    35.355171    -14.227431    2.016080    -14.275640    -3.562653    
118.770454    85.841499    -73.874619    -2.666370    -4.001479    -38.175457    4.234275    22.410931    3.791572    -11.094795    4.289743    -1.697846    5.092625    -12.120210    -1.575734    -10.668200    0.132976    -1.675047    -56.943581    25.444559    -20.938848    -6.879541    6.805190    -88.724960    162.118225    -5.182535    24.582445    16.977209    0.932901    6.206569    31.923800    50.060925    29.231224    -1.684564    -1.247431    76.549507    -131.560593    -19.596415    11.658009    22.477541    -15.995713    2.723622    -45.690758    52.247471    36.094334    -12.224752    3.685082    6.966102    1.759656    -2.817945    -11.447092    -1.164464    34.403946    -13.782703    1.989709    -13.271841    -3.798312    
118.781876    86.328781    -73.480675    -2.367701    -3.988091    -38.252186    4.054917    22.063232    3.962743    -11.086175    4.189800    -1.701083    5.131636    -11.524841    -1.588300    -10.654157    0.172163    -1.539036    -57.102238    25.376341    -20.723965    -7.025971    6.964170    -88.353355    162.048141    -5.217274    24.811081    16.956640    0.890897    6.065619    31.637589    50.423222    29.697838    -1.528466    -1.093720    76.129524    -132.231216    -19.648464    11.476785    22.069679    -16.044384    2.879241    -44.507870    51.293915    35.756657    -12.560158    3.222759    7.419620    1.318877    -2.259742    -11.415594    -1.045644    33.203617    -13.285770    2.005755    -12.057499    -3.963275    
118.803741    86.898872    -73.058975    -2.051264    -3.904723    -38.427643    3.888059    21.637196    4.139869    -11.111383    4.062345    -1.665666    5.173351    -10.835864    -1.568321    -10.614614    0.143175    -1.365432    -57.389973    25.378969    -20.396942    -7.119375    6.960405    -88.005615    161.698196    -5.345949    25.074923    16.932461    0.860235    5.897534    31.450758    50.810032    30.121048    -1.347080    -0.922887    75.611649    -132.867142    -19.762877    11.371432    21.493690    -15.869997    3.018663    -42.747093    49.903027    35.186771    -12.886225    2.671027    7.822189    0.879191    -1.671544    -11.341245    -0.949074    31.793924    -12.711882    2.098441    -10.650162    -4.078317    
118.836334    87.537140    -72.613197    -1.724206    -3.754710    -38.702141    3.740013    21.139563    4.326375    -11.173914    3.914727    -1.593633    5.211406    -10.077822    -1.514618    -10.548987    0.121950    -1.145500    -57.786442    25.374126    -20.006975    -7.238585    7.034191    -87.516167    161.369186    -5.379354    25.459015    16.910563    0.823567    5.717141    31.360542    51.243717    30.482218    -1.180100    -0.785440    75.020142    -133.396118    -19.947128    11.358790    20.766262    -15.492893    3.143940    -40.523781    48.087681    34.473553    -13.192085    2.100776    8.168801    0.427220    -1.075816    -11.252018    -0.869025    30.226276    -12.040108    2.318852    -9.077088    -4.163746    
118.878708    88.226288    -72.147011    -1.395013    -3.544774    -39.074364    3.617321    20.584557    4.528839    -11.265295    3.759064    -1.491704    5.231380    -9.283740    -1.432578    -10.461004    0.076146    -0.888470    -58.286488    25.381765    -19.539246    -7.353661    7.079389    -86.984543    160.898483    -5.447248    25.872236    16.885532    0.840981    5.530278    31.355389    51.660114    30.788624    -0.968157    -0.586758    74.360100    -133.914688    -20.170507    11.405986    19.908501    -14.937495    3.262905    -37.961632    45.878811    33.672165    -13.444314    1.582145    8.470622    -0.048910    -0.493891    -11.183622    -0.801108    28.558414    -11.267447    2.728700    -7.376327    -4.233087    
118.928658    88.946777    -71.664230    -1.072818    -3.283587    -39.541271    3.528286    19.992249    4.753807    -11.381458    3.601259    -1.359500    5.223361    -8.488696    -1.326388    -10.357201    0.055015    -0.599056    -58.857841    25.347338    -19.037582    -7.510782    7.187881    -86.366821    160.416397    -5.496196    26.319160    16.864502    0.799235    5.350378    31.416372    52.168407    31.023142    -0.859575    -0.552187    73.693710    -134.196594    -20.472761    11.548460    18.946554    -14.232461    3.389493    -35.175102    43.326908    32.794231    -13.608980    1.176030    8.754596    -0.555259    0.053901    -11.170550    -0.742009    26.852650    -10.409014    3.387445    -5.598514    -4.300893    
118.982628    89.677444    -71.168976    -0.766860    -2.981298    -40.098709    3.480742    19.386625    5.008979    -11.511537    3.450635    -1.207317    5.177648    -7.727334    -1.200034    -10.247444    0.019893    -0.295773    -59.486477    25.290356    -18.484426    -7.672725    7.272029    -85.764847    159.818100    -5.604779    26.721455    16.835993    0.762197    5.182975    31.556374    52.680893    31.172445    -0.725279    -0.448341    73.009819    -134.517136    -20.762024    11.683392    17.911619    -13.408566    3.540130    -32.265556    40.497192    31.821388    -13.668550    0.923506    9.056521    -1.088923    0.548238    -11.237580    -0.691879    25.174625    -9.491303    4.336949    -3.805768    -4.391969    
